<svg width="24" height="24" viewBox="0 0 24 24" fill="none" xmlns="http://www.w3.org/2000/svg">
<g clip-path="url(#clip0_147_1170)">
<path d="M6.375 10.875C6.07663 10.875 5.79048 10.9935 5.5795 11.2045C5.36853 11.4155 5.25 11.7016 5.25 12C5.25 12.2984 5.36853 12.5845 5.5795 12.7955C5.79048 13.0065 6.07663 13.125 6.375 13.125H17.625C17.9234 13.125 18.2095 13.0065 18.4205 12.7955C18.6315 12.5845 18.75 12.2984 18.75 12C18.75 11.7016 18.6315 11.4155 18.4205 11.2045C18.2095 10.9935 17.9234 10.875 17.625 10.875H6.375Z" fill="#EB3737"/>
<path d="M24 12C24 15.1826 22.7357 18.2348 20.4853 20.4853C18.2348 22.7357 15.1826 24 12 24C8.8174 24 5.76516 22.7357 3.51472 20.4853C1.26428 18.2348 0 15.1826 0 12C0 8.8174 1.26428 5.76516 3.51472 3.51472C5.76516 1.26428 8.8174 0 12 0C15.1826 0 18.2348 1.26428 20.4853 3.51472C22.7357 5.76516 24 8.8174 24 12ZM21.75 12C21.75 9.41414 20.7228 6.93419 18.8943 5.10571C17.0658 3.27723 14.5859 2.25 12 2.25C9.41414 2.25 6.93419 3.27723 5.10571 5.10571C3.27723 6.93419 2.25 9.41414 2.25 12C2.25 14.5859 3.27723 17.0658 5.10571 18.8943C6.93419 20.7228 9.41414 21.75 12 21.75C14.5859 21.75 17.0658 20.7228 18.8943 18.8943C20.7228 17.0658 21.75 14.5859 21.75 12Z" fill="#EB3737"/>
</g>
<defs>
<clipPath id="clip0_147_1170">
<rect width="24" height="24" fill="white"/>
</clipPath>
</defs>
</svg>
